<?xml version="1.0" encoding="UTF-8" standalone="no"?>
<!DOCTYPE svg PUBLIC "-//W3C//DTD SVG 1.1//EN" "http://www.w3.org/Graphics/SVG/1.1/DTD/svg11.dtd">
<svg width="100%" height="100%" viewBox="0 0 425 156" version="1.1" xmlns="http://www.w3.org/2000/svg" xmlns:xlink="http://www.w3.org/1999/xlink" xml:space="preserve" xmlns:serif="http://www.serif.com/" style="fill-rule:evenodd;clip-rule:evenodd;stroke-linejoin:round;stroke-miterlimit:2;">
    <g transform="matrix(1,0,0,1,-87.5,-222.256)">
        <path d="M182.3,269.1L182.3,339L228.3,339L264.2,377.8L123.4,377.8L87.5,339L131.4,339L131.4,261.1L87.5,261.1L123.1,222.3L191.4,222.3C201.1,222.3 210.5,226 217.6,232.5C218.3,233.2 352.4,377.8 352.4,377.8L282.5,377.8L182.3,269.1Z" style="fill:rgb(193,0,22);fill-rule:nonzero;"/>
        <path d="M503.3,306.8L436.5,234.8C429.9,227.8 420.9,223.1 411.4,222.3C410.3,222.2 226.2,222.3 226.2,222.3C227.9,223.6 229.6,225.3 231.1,226.9L371.1,377.7L480.8,377.7L503.3,353.4C509.4,346.8 512.5,338.4 512.5,330.1C512.5,321.8 509.4,313.4 503.3,306.8ZM436.4,334.6L398.7,334.6L334.8,265.7L381.1,265.7C389.5,265.7 397.6,268.1 403.5,274.3L443.6,317.7C449.5,324 445.1,334.6 436.4,334.6Z" style="fill:rgb(63,68,67);fill-rule:nonzero;"/>
    </g>
</svg>
